<?xml version="1.0" standalone="no"?>
<!DOCTYPE svg PUBLIC "-//W3C//DTD SVG 20010904//EN"
 "http://www.w3.org/TR/2001/REC-SVG-20010904/DTD/svg10.dtd">
<svg version="1.0" xmlns="http://www.w3.org/2000/svg"
 width="90.000000pt" height="90.000000pt" viewBox="0 0 90.000000 90.000000"
 preserveAspectRatio="xMidYMid meet">
<metadata>
Created by potrace 1.11, written by Peter Selinger 2001-2013
</metadata>
<g transform="translate(0.000000,90.000000) scale(0.100000,-0.100000)"
fill="#000000" stroke="none">
<path d="M190 709 c-41 -21 -86 -48 -99 -58 l-25 -19 32 -48 c29 -47 36 -82
19 -95 -5 -3 1 -39 13 -78 17 -59 27 -75 53 -91 45 -28 57 -25 57 12 0 49 55
125 113 154 26 13 47 28 47 33 0 16 -115 224 -125 227 -6 2 -44 -15 -85 -37z
m90 17 c0 -2 3 -13 6 -23 6 -17 5 -16 -8 1 -15 19 -16 19 -54 -4 -80 -49 -89
-53 -79 -43 29 31 135 85 135 69z m-50 -70 c0 -2 -12 -11 -27 -20 l-28 -17 24
20 c23 21 31 25 31 17z m84 -12 c3 -8 2 -12 -4 -9 -6 3 -10 10 -10 16 0 14 7
11 14 -7z m-201 -6 c-22 -11 -22 -11 14 -54 19 -24 39 -41 44 -38 9 5 49 -53
49 -71 -1 -5 -9 5 -19 24 -10 19 -26 36 -36 37 -9 1 -18 4 -19 6 0 2 -16 22
-34 45 -29 38 -31 43 -15 52 10 6 23 10 28 10 6 0 0 -5 -12 -11z m126 -23
c-25 -13 -51 -31 -58 -39 -7 -9 -18 -13 -23 -10 -13 8 79 70 106 71 13 1 3 -8
-25 -22z m39 -8 c-29 -24 -98 -66 -86 -52 10 11 102 74 108 74 3 0 -7 -10 -22
-22z m77 -33 c15 -25 23 -49 19 -53 -36 -31 -144 -89 -150 -80 -3 6 -3 13 0
16 3 4 6 1 6 -5 0 -9 89 38 138 74 2 1 -8 23 -23 48 -15 25 -25 46 -22 46 3 0
17 -21 32 -46z"/>
<path d="M484 695 c-7 -19 -14 -38 -14 -42 0 -4 -12 -20 -27 -35 -22 -23 -25
-31 -14 -38 8 -4 16 -28 18 -52 5 -49 14 -58 61 -58 26 0 36 -7 52 -32 26 -42
25 -50 -6 -87 -39 -47 -12 -37 33 12 43 47 68 105 58 136 -5 17 -1 18 62 14
38 -3 79 0 93 5 21 9 16 11 -35 11 -43 1 -74 8 -110 26 -40 20 -44 24 -21 21
39 -5 89 10 111 34 21 23 9 26 -19 5 -22 -17 -73 -19 -109 -6 -42 16 -97 71
-97 97 0 35 -19 29 -36 -11z"/>
<path d="M676 413 c-3 -27 -8 -67 -12 -89 -9 -59 11 -67 53 -21 18 20 33 45
33 55 0 17 -54 102 -64 102 -2 0 -7 -21 -10 -47z"/>
<path d="M443 363 c-21 -27 -41 -49 -44 -51 -3 -1 -15 -9 -25 -17 -17 -12 -14
-13 24 -4 61 13 116 43 135 73 25 37 21 46 -17 46 -29 0 -41 -7 -73 -47z"/>
<path d="M566 314 c-34 -34 -13 -68 36 -57 l23 5 -24 -20 c-25 -20 -16 -37 13
-26 47 18 37 80 -11 71 -26 -5 -31 8 -7 17 8 3 12 10 9 16 -9 14 -21 12 -39
-6z"/>
<path d="M524 292 c-6 -4 -16 -16 -22 -27 -6 -11 -12 -14 -12 -7 0 6 -7 12
-16 12 -12 0 -15 -6 -11 -21 5 -19 4 -20 -12 -5 -25 23 -48 20 -76 -9 -18 -17
-25 -20 -25 -9 0 22 -49 38 -77 25 -14 -6 -23 -7 -23 -1 0 9 -51 40 -65 40 -5
0 -45 -85 -45 -95 0 -2 16 -9 35 -15 26 -9 39 -9 49 -1 10 8 18 6 31 -9 24
-26 70 -26 89 1 l14 21 11 -21 c23 -42 99 -16 102 35 1 14 3 13 8 -6 4 -14 15
-26 25 -28 14 -3 17 1 11 17 -7 24 -3 26 25 9 14 -9 22 -10 31 -1 8 8 5 15
-15 28 -20 14 -24 22 -19 46 6 31 4 33 -13 21z m-309 -42 c3 -5 1 -10 -4 -10
-6 0 -11 5 -11 10 0 6 2 10 4 10 3 0 8 -4 11 -10z m103 -47 c-2 -17 -9 -28
-18 -28 -9 0 -16 11 -18 28 -3 22 1 27 18 27 17 0 21 -5 18 -27z m118 12 c4
-8 0 -22 -7 -31 -11 -13 -14 -13 -27 0 -17 17 -9 46 13 46 9 0 18 -7 21 -15z
m-231 -5 c3 -5 -1 -10 -9 -10 -9 0 -16 5 -16 10 0 6 4 10 9 10 6 0 13 -4 16
-10z"/>
</g>
</svg>
